<?xml version="1.0" encoding="UTF-8" standalone="no"?>
<svg
   xmlns:dc="http://purl.org/dc/elements/1.1/"
   xmlns:cc="http://creativecommons.org/ns#"
   xmlns:rdf="http://www.w3.org/1999/02/22-rdf-syntax-ns#"
   xmlns:svg="http://www.w3.org/2000/svg"
   xmlns="http://www.w3.org/2000/svg"
   xmlns:sodipodi="http://sodipodi.sourceforge.net/DTD/sodipodi-0.dtd"
   xmlns:inkscape="http://www.inkscape.org/namespaces/inkscape"
   enable-background="new 0 0 250 350"
   version="1.1"
   viewBox="0 0 250 350"
   xml:space="preserve"
   id="svg4842"
   sodipodi:docname="handmapping.svg"
   inkscape:version="0.92.4 (5da689c313, 2019-01-14)"><metadata
   id="metadata4848"><rdf:RDF><cc:Work
       rdf:about=""><dc:format>image/svg+xml</dc:format><dc:type
         rdf:resource="http://purl.org/dc/dcmitype/StillImage" /></cc:Work></rdf:RDF></metadata><defs
   id="defs4846" /><sodipodi:namedview
   pagecolor="#ffffff"
   bordercolor="#666666"
   borderopacity="1"
   objecttolerance="10"
   gridtolerance="10"
   guidetolerance="10"
   inkscape:pageopacity="0"
   inkscape:pageshadow="2"
   inkscape:window-width="1545"
   inkscape:window-height="827"
   id="namedview4844"
   showgrid="false"
   inkscape:zoom="1.2142857"
   inkscape:cx="257.52423"
   inkscape:cy="143.99122"
   inkscape:window-x="2162"
   inkscape:window-y="105"
   inkscape:window-maximized="0"
   inkscape:current-layer="svg4842" />
<g
   id="g4706"
   style="opacity:0.41"
   clip-rule="evenodd"
   fill-rule="evenodd">
	<path
   d="m245.73 66.654c-1.249-2.946-17.129-14.846-23.771 15.658-4.675 21.69-13.29 64.269-16.583 72.188-2.75 0.032-2.75-3-5.5-4.5 0.843-8.108 20-102.5 13.497-124.15-0.088-0.293-6.241-9.189-19.373-3.307-10.908 10.173-7.839 36.293-12.723 61.657-5.905 30.668-6.572 54.502-7.901 54.801-1.087 0.244-5.915-2.751-7-2.5 1.007-10 8.996-111.84 0-128-12.5-10.598-17.09-4.32-20-3.354-10.1 3.354-6.636 39.728-10.611 77.051-0.185 44.303-0.201 53.016-1.889 53.803-2.041 0.951-5.965 0.759-7.5 0.5-0.688-27.474-3.578-40-3.81-51.239-0.642-31.116 0.848-59.077-4.954-63.761-8.024-6.608-15.394-3.24-18.547-1.004-8.51 6.024-5.191 28.474-8.993 72.004-0.379 16.329 0.627 31.222 0.369 42.958-0.342 15.582-1.941 26.056-2.498 31.386-0.971 9.295-2.82 17.904-3.289 27.589-0.031 2.945-1.343 11.902-1.518 14.843-0.045 0.768-5.356 5.682-11.3 6.611-12.675 0.378-17.283-7.027-26.995-24.314-9.056-16.119-19.93-31.004-37.124-26.218-5.778 3.501-4.782 11.369 4.043 23.029 8.01 18.971 23.153 38.489 29.461 47.077 7.249 9.869 16.646 29.036 21.425 36.971 13.134 19.392 18.96 20.147 27.561 21.826 8.864 6.45 10 19.679 9.901 19.274 1.297 6.217 2.064 25.865 2.25 32.968 9.677 8.385 92.79-0.391 105-4 0.855-8.476 4.182-42.063 3.5-53.5 2.186-2.449 2.584-5.545 4.139-9.011 0.98-2.276 8.016-28.333 9.084-33.933 1.379-7.225 2.484-38.464 1.777-56.057-0.28-6.81 28.19-103.69 19.85-123.36z"
   id="path4684"
   style=""
   fill="#F4BB82" />
	<path
   d="m117.61 21.5c-1.967-1.967-6.62-3.738-9.403-3.738s-7.514 1.02-9.481 2.987c-0.864 2.631-0.44 14.15 1.647 21.157 1.604 4.642 14.508 2.878 15.745 0.344 1.45-2.961 2.8-19.436 1.49-20.75z"
   id="path4686"
   style=""
   fill="#F9C795" />
	<path
   d="m116.12 42.249c-7.056-3.813-13.195-0.602-15.51-0.771 0.86 5.37 14.57 2.96 15.51 0.771z"
   id="path4688"
   style=""
   fill="#FFEBC0" />
	<path
   d="m12.058 169.15c-1.967-1.967-5.491 0.367-7.458 2.333-0.864 2.631 3.153 11.59 7.179 16.897 4.724 1.958 6.737-0.099 7.974-2.634 1.444-2.96-6.389-15.28-7.695-16.6z"
   id="path4690"
   style=""
   fill="#F9C795" />
	<path
   d="m19.753 185.75c-5.625-2.625-5.264 2.507-7.578 2.337 5.078 3.29 6.633-0.15 7.578-2.34z"
   id="path4692"
   style=""
   fill="#FFEBC0" />
	<path
   d="m166.77 9.126c-1.967-1.967-8.685-6.602-11.467-6.602-2.783 0-5.957 1.02-7.924 2.987-0.864 2.631-3.38 12.245-0.533 20.137 1.604 4.642 16.528 3.174 17.349-0.512 0.71-3.214 3.88-14.695 2.57-16.01z"
   id="path4694"
   style=""
   fill="#F9C795" />
	<path
   d="m164.2 25.137c-5.82-3.262-14.82-0.473-17.349 0.631 6.03 6.232 16.4 1.558 17.35-0.631z"
   id="path4696"
   style=""
   fill="#FFEBC0" />
	<path
   d="m213.38 25.849c-3.872-8.087-17.03-5.566-18.997-3.599-0.864 2.631-4.796 11.118-2.708 18.124 2.833 6.626 14.227 6.417 15.464 3.882 1.45-2.96 7.05-16.735 6.25-18.407z"
   id="path4698"
   style=""
   fill="#F9C795" />
	<path
   d="m207.13 44.256c-7.056-3.813-10.256-2.675-13.868-2.32 0.74 4.814 12.93 4.509 13.87 2.32z"
   id="path4700"
   style=""
   fill="#FFEBC0" />
	<path
   d="m245.73 66.625c-3.1-6.625-12.91-4.592-14.87-2.625-0.864 2.631-5.729 12.609-2.257 20.685 1.604 4.642 10.778 4.815 12.33 1.639 1.45-2.96 5.59-18.021 4.8-19.699z"
   id="path4702"
   style=""
   fill="#F9C795" />
	<path
   d="m240.93 86.324c-7.056-3.813-10.052-1.918-12.087-1.074 4.04 4.875 11.14 3.263 12.09 1.074z"
   id="path4704"
   style=""
   fill="#FFEBC0" />
</g>
	<g
   clip-rule="evenodd"
   fill="none"
   fill-rule="evenodd"
   stroke="#000"
   stroke-linecap="round"
   id="g4828"
   style="opacity:0.185">
		<path
   d="m207.13 44.256c-6.256-4.637-12.125-2.168-14.006-1.98"
   id="path4708"
   style="" />
		<path
   d="m147.38 50.5h11"
   stroke-width="1.2336"
   id="path4710"
   style="" />
		<path
   d="m153.88 53c1.011-2.816 4.247 0.276 6 0-1.23 3.038-3.44-1.084-6 0z"
   id="path4712"
   style="" />
		<path
   d="m149.38 55.5h4"
   stroke-width="1.2247"
   id="path4714"
   style="" />
		<path
   d="m101.38 65c1.985 0.23 3.95 0.705 6 0.5"
   stroke-width="1.5689"
   id="path4716"
   style="" />
		<path
   d="m105.38 69.5h4"
   stroke-width="1.2472"
   id="path4718"
   style="" />
		<path
   d="m228.6 85.275c1.504-1.243 7.274-1.971 12.333 1.049"
   id="path4720"
   style="" />
		<path
   d="m152.38 93.5h6"
   stroke-width="1.2403"
   id="path4722"
   style="" />
		<path
   d="m146.38 98.5c3.577 0.223 6.603-1.463 10-2"
   stroke-width="1.2329"
   id="path4724"
   style="" />
		<path
   d="m228.38 103.5c1.913-0.073 3.297 1.448 5 2"
   stroke-width="1.1402"
   id="path4726"
   style="" />
		<path
   d="m109.38 104.5c1.058 0.059 1.543-0.457 2-1"
   stroke-width="1.2536"
   id="path4728"
   style="" />
		<path
   d="m99.378 105.5c2.924 0.616 5.855 1.378 9 1"
   stroke-width="1.2978"
   id="path4730"
   style="" />
		<path
   d="m188.38 104.5c2.256-0.538 3.709 1.562 6 1"
   stroke-width="1.1902"
   id="path4732"
   style="" />
		<path
   d="m194.88 116c-0.169-2.168 3.547-0.453 5-1 0.17 2.17-3.55 0.45-5 1z"
   id="path4734"
   style="" />
		<path
   d="m221.38 126.5c1.717 1.292 3.635 2.627 5 4"
   stroke-width="1.0871"
   id="path4736"
   style="" />
		<path
   d="m219.88 129c6.76 1.6 2.45 5.91 0 0z"
   id="path4738"
   style="" />
		<path
   d="m151.38 171.5c-5e-3 -6.774-1.243-13.271-2-20"
   stroke-width="1.3969"
   id="path4740"
   style="" />
		<path
   d="m175.38 181.5c0.188-8.797-1.024-18.99 4-26"
   stroke-width="1.2487"
   id="path4742"
   style="" />
		<path
   d="m144.38 183.5v-17"
   stroke-width="1.2306"
   id="path4744"
   style="" />
		<path
   d="m115.38 176.5c-9e-3 -3.076 0.353-6.205-1-9"
   stroke-width="1.2978"
   id="path4746"
   style="" />
		<path
   d="m184.38 180.5c0.833-3.259 1.182-6.599 1-10"
   stroke-width="1.496"
   id="path4748"
   style="" />
		<path
   d="m29.878 205c-0.097 2.57-3.903 1.43-4 4-2.878-1.67 1.857-4.05 4-4z"
   id="path4750"
   style="" />
		<path
   d="m29.378 215.5c0.233-0.098 0.467-0.195 0.7-0.293-0.026-2.358 1.368-4.366 1.3-6.707"
   stroke-width="1.4577"
   id="path4752"
   style="" />
		<path
   d="m126.38 136.5c2.452 0.878 5.149 1.463 7.5-0.5"
   stroke-width="1.2437"
   id="path4754"
   style="" />
		<path
   d="m133.88 136c0.116-0.217 0.233-0.433 0.35-0.65 4.018-16.758-0.696-39.768 2.31-60.691 2.595-18.058 1.29-36.85 3-52 0.889-7.866 2.62-16.012 8.841-18.659"
   stroke-width="1.4832"
   id="path4756"
   style="" />
		<path
   d="m166.38 8.5c5.667 6.792 4.729 86.668 0 128"
   stroke-width="1.3382"
   id="path4758"
   style="" />
		<path
   d="m166.38 136.5c2.493 0.455 4.17 2.543 7 2.5"
   stroke-width="1.2403"
   id="path4760"
   style="" />
		<path
   d="m173.38 139c0.168-0.049 0.335-0.098 0.503-0.147 0.244-14.662 3.14-30.242 6.294-47.556 3.358-18.434 3.135-41.74 8.001-58 1.285-4.296 3.076-9.232 5.826-10.755s13.71-5.602 19.373 3.307c4.528 7.124-3.991 85.954-13.497 124.15"
   stroke-width="1.3921"
   id="path4762"
   style="" />
		<path
   d="m214.16 30.719"
   stroke-width="1.3921"
   id="path4764"
   style="" />
		<path
   d="m199.88 150c2.07 1.069 2.416 4.925 5.5 4.5"
   stroke-width="1.118"
   id="path4766"
   style="" />
		<path
   d="m205.38 154.5c0.168-0.166 0.335-0.332 0.503-0.497 4.551-18.474 11.978-52.298 16.295-72.706 1.542-7.291 4.892-19.735 16.068-19.377 18.124 0.58 5.544 42.665 3.336 57.782-3.787 25.927-11.467 53.551-15.702 70.298"
   stroke-width="1.2751"
   id="path4768"
   style="" />
		<path
   d="m225.88 190c2.167 33.429-0.062 69.938-15 99"
   stroke-width="1.2729"
   id="path4770"
   style="" />
		<path
   d="m210.88 289c0.64 18.364-1.739 35.181-3.5 53.5"
   stroke-width="1.4547"
   id="path4772"
   style="" />
		<path
   d="m210.88 289c-1.175-2.423 1.36-4.818 0.5-7.5"
   stroke-width="1.3166"
   id="path4774"
   style="" />
		<path
   d="m225.88 190c-0.449-0.218-0.849-0.484-1.246-0.754-0.223-1.11-0.222-2.445-0.254-3.746"
   stroke-width="1.2019"
   id="path4776"
   style="" />
		<path
   d="m205.38 154.5c-0.372 2.444-1.094 5.542-3 7"
   stroke-width="1.2065"
   id="path4778"
   style="" />
		<path
   d="m199.88 150c-2.478 1.936-0.452 5.399-2.5 7.5"
   stroke-width="1.3061"
   id="path4780"
   style="" />
		<path
   d="m173.38 139c0.698 3.134-1 5.536-1 8.5"
   stroke-width="1.2247"
   id="path4782"
   style="" />
		<path
   d="m166.38 136.5v6"
   stroke-width="1.2403"
   id="path4784"
   style="" />
		<path
   d="m133.88 136c0.543 1.124 0.447 2.887 0.5 4.5"
   stroke-width="1.2472"
   id="path4786"
   style="" />
		<path
   d="m126.38 136.5c-0.356 2.162 0.326 4.051 1 6"
   stroke-width="1.3301"
   id="path4788"
   style="" />
		<path
   d="m4.262 171.48c3.696-3.208 7.268-3.15 8.823-1.688s7.75 13.558 6.053 16.951-6.775 2.063-7.08 1.844c-4.562-3.132-7.174-12.835-7.68-14.088s-0.463-8.861 5.217-9.764c26.476-4.208 34.98 34.532 50.021 47.526 5.337 4.61 15.801 7.055 23.538-2.986 2.301-27.665 9.196-63.075 7.065-95.617-0.805-12.294-0.522-20.65 0.957-31.362 2.837-20.539-2.8-59.265 10.864-63.497s18.704 5.456 19.496 10.542c2.704 17.359-0.579 47.212 2.001 72.999 1.369 13.676 1.916 24.45 2.841 34.159"
   stroke-width="1.291"
   id="path4790"
   style="" />
		<path
   d="m19.425 185.27c-4.712-0.957-7.367 3.32-7.367 3.32 6.934 20.102 31.196 44.451 41.91 68.137 8.192 18.111 30.244 50.608 45.333 33.337"
   stroke-linejoin="round"
   id="path4792"
   style="" />
		<path
   d="m88.132 293.36c14.972 6.409 13.254 35.594 14.246 53.145"
   id="path4794"
   style="" />
		<path
   d="m194 22.542c-1.292 5.219-2.843 12.075-2.618 16.953 1.498 6.332 12.413 8.22 15.75 4.761s5.128-12.902 6.241-18.407"
   stroke-width="1.3677"
   id="path4796"
   style="" />
		<path
   d="m166.38 8.5c0 6.219-0.278 11.509-2.229 16.776-4.55 4.765-13.396 4.568-17.299 0.373-2.746-7.892-1.798-14.762 1.528-21.649 4-1.52 8.38-3.78 18 4.5z"
   stroke-width="1.3248"
   id="path4798"
   style="" />
		<path
   d="m100.38 41.5c3.756-0.311 11.5-2.541 15.776 0.776"
   id="path4800"
   style="" />
		<path
   d="m100.38 41.5c0 4.36 13.475 4.36 15.776 0.776 0.801-5.743 2.876-14.726 1.46-20.776-1.211-1.946-6.259-3.853-9.403-3.738s-7.069 0.416-9.144 2.734c-1.44 6.137-0.686 16.149 1.304 21.004"
   stroke-width="1.2864"
   id="path4802"
   style="" />
		<path
   d="m230.21 64.521c-1.828 5.222-4.861 14.161-1.603 20.754 14.125 10.922 16.216-6.756 17.129-18.621"
   stroke-width="1.3692"
   id="path4804"
   style="" />
		<path
   d="m146.85 25.649c2.55-1.816 14.745-3.159 17.299-0.373"
   id="path4806"
   style="" />
		<path
   d="m109.38 62.5c0.758 0.576 1.789 0.878 3 1"
   stroke-width="1.1547"
   id="path4808"
   style="" />
		<path
   d="m193.38 62.5c2.514 0.263 4.805 1.844 7 3"
   stroke-width="1.1402"
   id="path4810"
   style="" />
		<path
   d="m199.38 68.5h3"
   stroke-width="1.2247"
   id="path4812"
   style="" />
		<path
   d="m143.38 92.5c1.942-1.58 4.647-0.812 7-1"
   stroke-width="1.2367"
   id="path4814"
   style="" />
		<path
   d="m98.378 98.5c4.549 0.707 9.069-0.595 13.5 0.5"
   stroke-width="1.3608"
   id="path4816"
   style="" />
		<path
   d="m199.38 109.5c-4.249 0.32-9.072 2.292-13 0"
   stroke-width="1.4272"
   id="path4818"
   style="" />
		<path
   d="m229.88 109c0.908-0.882 2.951-0.173 6-1-0.02 2.74-4.72 2.38-6 1z"
   id="path4820"
   style="" />
		<path
   d="m219.38 134.5c4.174 2.152 8.578 0.01 13 0"
   stroke-width="1.2558"
   id="path4822"
   style="" />
		<path
   d="m103.38 180.5c-2.215-7.832-1.3-16.489 1-24"
   stroke-width="1.3568"
   id="path4824"
   style="" />
		<path
   d="m211.38 195.5c0.048-6.54 3.833-11.712 5-18"
   stroke-width="1.2501"
   id="path4826"
   style="" />
	</g>
	
	
	
	
	
		<path
   d="m215.02 273.01c0.65-1.5 0.4-0.93 0 0z"
   fill="#F4BB82"
   id="path4840" />
<text
   xml:space="preserve"
   style="font-style:normal;font-weight:normal;font-size:5.33333349px;line-height:1.25;font-family:sans-serif;letter-spacing:0px;word-spacing:0px;fill:#000000;fill-opacity:1;stroke:none"
   x="2.2647054"
   y="346.91177"
   id="text4852"><tspan
     sodipodi:role="line"
     id="tspan4850"
     x="2.2647054"
     y="346.91177">https://pixabay.com/vectors/hand-tattoo-dots-drawing-sketch-867321/</tspan></text>
<text
   xml:space="preserve"
   style="font-style:normal;font-weight:normal;font-size:10.66666698px;line-height:1.25;font-family:sans-serif;letter-spacing:0px;word-spacing:0px;fill:#000000;fill-opacity:1;stroke:none;stroke-width:0.37795275;stroke-miterlimit:4;stroke-dasharray:none;stroke-opacity:1;"
   x="78.235291"
   y="30.882353"
   id="text4856"><tspan
     sodipodi:role="line"
     id="tspan4854"
     x="78.235291"
     y="30.882353">indexTop</tspan></text>
<text
   id="text4860"
   y="14.577303"
   x="127.15045"
   style="font-style:normal;font-weight:normal;font-size:10.66666698px;line-height:1.25;font-family:sans-serif;letter-spacing:0px;word-spacing:0px;fill:#000000;fill-opacity:1;stroke:none;stroke-width:0.37795275;stroke-miterlimit:4;stroke-dasharray:none;stroke-opacity:1"
   xml:space="preserve"><tspan
     y="14.577303"
     x="127.15045"
     id="tspan4858"
     sodipodi:role="line">middleTop</tspan></text>
<text
   xml:space="preserve"
   style="font-style:normal;font-weight:normal;font-size:10.66666698px;line-height:1.25;font-family:sans-serif;letter-spacing:0px;word-spacing:0px;fill:#000000;fill-opacity:1;stroke:none;stroke-width:0.37795275;stroke-miterlimit:4;stroke-dasharray:none;stroke-opacity:1"
   x="181.88884"
   y="36.123264"
   id="text4864"><tspan
     sodipodi:role="line"
     id="tspan4862"
     x="181.88884"
     y="36.123264">ringTop</tspan></text>
<text
   id="text4868"
   y="82.709122"
   x="218.57521"
   style="font-style:normal;font-weight:normal;font-size:10.66666698px;line-height:1.25;font-family:sans-serif;letter-spacing:0px;word-spacing:0px;fill:#000000;fill-opacity:1;stroke:none;stroke-width:0.37795275;stroke-miterlimit:4;stroke-dasharray:none;stroke-opacity:1"
   xml:space="preserve"><tspan
     y="82.709122"
     x="218.57521"
     id="tspan4866"
     sodipodi:role="line">pinkyTop</tspan></text>
<text
   xml:space="preserve"
   style="font-style:normal;font-weight:normal;font-size:10.66666698px;line-height:1.25;font-family:sans-serif;letter-spacing:0px;word-spacing:0px;fill:#000000;fill-opacity:1;stroke:none;stroke-width:0.37795275;stroke-miterlimit:4;stroke-dasharray:none;stroke-opacity:1"
   x="205.7641"
   y="124.92755"
   id="text4872"><tspan
     sodipodi:role="line"
     id="tspan4870"
     x="205.7641"
     y="124.92755">pinkyCenter</tspan></text>
<text
   id="text4880"
   y="166.85483"
   x="199.6497"
   style="font-style:normal;font-weight:normal;font-size:10.66666698px;line-height:1.25;font-family:sans-serif;letter-spacing:0px;word-spacing:0px;fill:#000000;fill-opacity:1;stroke:none;stroke-width:0.37795275;stroke-miterlimit:4;stroke-dasharray:none;stroke-opacity:1"
   xml:space="preserve"><tspan
     y="166.85483"
     x="199.6497"
     id="tspan4878"
     sodipodi:role="line">pinkyBase</tspan></text>
<text
   id="text4884"
   y="101.17897"
   x="167.57196"
   style="font-style:normal;font-weight:normal;font-size:10.66666698px;line-height:1.25;font-family:sans-serif;letter-spacing:0px;word-spacing:0px;fill:#000000;fill-opacity:1;stroke:none;stroke-width:0.37795275;stroke-miterlimit:4;stroke-dasharray:none;stroke-opacity:1"
   xml:space="preserve"><tspan
     y="101.17897"
     x="167.57196"
     id="tspan4882"
     sodipodi:role="line">ringCenter</tspan></text>
<text
   xml:space="preserve"
   style="font-style:normal;font-weight:normal;font-size:10.66666698px;line-height:1.25;font-family:sans-serif;letter-spacing:0px;word-spacing:0px;fill:#000000;fill-opacity:1;stroke:none;stroke-width:0.37795275;stroke-miterlimit:4;stroke-dasharray:none;stroke-opacity:1"
   x="166.74843"
   y="147.347"
   id="text4888"><tspan
     sodipodi:role="line"
     id="tspan4886"
     x="166.74843"
     y="147.347">ringBase</tspan></text>
<text
   xml:space="preserve"
   style="font-style:normal;font-weight:normal;font-size:10.66666698px;line-height:1.25;font-family:sans-serif;letter-spacing:0px;word-spacing:0px;fill:#000000;fill-opacity:1;stroke:none;stroke-width:0.37795275;stroke-miterlimit:4;stroke-dasharray:none;stroke-opacity:1"
   x="124.23884"
   y="85.038414"
   id="text4892"><tspan
     sodipodi:role="line"
     id="tspan4890"
     x="124.23884"
     y="85.038414">middleCenter</tspan></text>
<text
   id="text4896"
   y="132.78891"
   x="118.4156"
   style="font-style:normal;font-weight:normal;font-size:10.66666698px;line-height:1.25;font-family:sans-serif;letter-spacing:0px;word-spacing:0px;fill:#000000;fill-opacity:1;stroke:none;stroke-width:0.37795275;stroke-miterlimit:4;stroke-dasharray:none;stroke-opacity:1"
   xml:space="preserve"><tspan
     y="132.78891"
     x="118.4156"
     id="tspan4894"
     sodipodi:role="line">middleBase</tspan></text>
<text
   id="text4900"
   y="94.937912"
   x="81.146904"
   style="font-style:normal;font-weight:normal;font-size:10.66666698px;line-height:1.25;font-family:sans-serif;letter-spacing:0px;word-spacing:0px;fill:#000000;fill-opacity:1;stroke:none;stroke-width:0.37795275;stroke-miterlimit:4;stroke-dasharray:none;stroke-opacity:1"
   xml:space="preserve"><tspan
     y="94.937912"
     x="81.146904"
     id="tspan4898"
     sodipodi:role="line">indexCenter</tspan></text>
<text
   xml:space="preserve"
   style="font-style:normal;font-weight:normal;font-size:10.66666698px;line-height:1.25;font-family:sans-serif;letter-spacing:0px;word-spacing:0px;fill:#000000;fill-opacity:1;stroke:none;stroke-width:0.37795275;stroke-miterlimit:4;stroke-dasharray:none;stroke-opacity:1"
   x="74.159019"
   y="142.68842"
   id="text4904"><tspan
     sodipodi:role="line"
     id="tspan4902"
     x="74.159019"
     y="142.68842">indexBase</tspan></text>
<text
   id="text4908"
   y="185.45758"
   x="-8.5007458"
   style="font-style:normal;font-weight:normal;font-size:10.66666698px;line-height:1.25;font-family:sans-serif;letter-spacing:0px;word-spacing:0px;fill:#000000;fill-opacity:1;stroke:none;stroke-width:0.37795275;stroke-miterlimit:4;stroke-dasharray:none;stroke-opacity:1"
   xml:space="preserve"><tspan
     y="185.45758"
     x="-8.5007458"
     id="tspan4906"
     sodipodi:role="line">thumbTop</tspan></text>
<text
   xml:space="preserve"
   style="font-style:normal;font-weight:normal;font-size:10.66666698px;line-height:1.25;font-family:sans-serif;letter-spacing:0px;word-spacing:0px;fill:#000000;fill-opacity:1;stroke:none;stroke-width:0.37795275;stroke-miterlimit:4;stroke-dasharray:none;stroke-opacity:1"
   x="11.298242"
   y="232.62576"
   id="text4912"><tspan
     sodipodi:role="line"
     id="tspan4910"
     x="11.298242"
     y="232.62576">thumbCenter</tspan></text>
<text
   id="text4916"
   y="268.7298"
   x="30.514902"
   style="font-style:normal;font-weight:normal;font-size:10.66666698px;line-height:1.25;font-family:sans-serif;letter-spacing:0px;word-spacing:0px;fill:#000000;fill-opacity:1;stroke:none;stroke-width:0.37795275;stroke-miterlimit:4;stroke-dasharray:none;stroke-opacity:1"
   xml:space="preserve"><tspan
     y="268.7298"
     x="30.514902"
     id="tspan4914"
     sodipodi:role="line">thumbBase</tspan></text>
<text
   id="text4920"
   y="281.86365"
   x="127.73275"
   style="font-style:normal;font-weight:normal;font-size:10.66666698px;line-height:1.25;font-family:sans-serif;letter-spacing:0px;word-spacing:0px;fill:#000000;fill-opacity:1;stroke:none;stroke-width:0.37795275;stroke-miterlimit:4;stroke-dasharray:none;stroke-opacity:1"
   xml:space="preserve"><tspan
     y="281.86365"
     x="127.73275"
     id="tspan4918"
     sodipodi:role="line">palmBase</tspan></text>
<text
   xml:space="preserve"
   style="font-style:normal;font-weight:normal;font-size:10.66666698px;line-height:1.25;font-family:sans-serif;letter-spacing:0px;word-spacing:0px;fill:#000000;fill-opacity:1;stroke:none;stroke-width:0.37795275;stroke-miterlimit:4;stroke-dasharray:none;stroke-opacity:1"
   x="123.07417"
   y="211.98486"
   id="text4924"><tspan
     sodipodi:role="line"
     id="tspan4922"
     x="123.07417"
     y="211.98486">palmCenter</tspan></text>
</svg>